<svg xmlns="http://www.w3.org/2000/svg" viewBox="0 0 100 125" width="50%" height="50%" preserveAspectRatio="none">
  <path d="M48.79 45.28a5 5 0 002.09 3.24 4.83 4.83 0 002.75.86 4.89 4.89 0 00.91-.09 1 1 0 00-.37-2 2.85 2.85 0 01-2.17-.42 3 3 0 01-1.25-2 3.07 3.07 0 01.25-1.71 1 1 0 00-1.84-.78 5.08 5.08 0 00-.37 2.9z"/>
  <path d="M91.18 25l1.88-7.79a3 3 0 10-5.76-1.39l-1.62 6.74a8 8 0 00-4.45.77 8.53 8.53 0 00-3.46 3.48l-3.4 6.07c-.57 1-1.21 2-1.89 3v-5.01a8.85 8.85 0 00-2-5.9 10.38 10.38 0 00-1.72-1.38A7.86 7.86 0 0073 21.12V21c3-2.82 2.92-7.31 2.91-7.5a.89.89 0 00-.87-1c-.17 0-4.63 0-7.43 2.79a7.43 7.43 0 00-.9 1.15c0-1.08-.07-2.17-.2-3.25a1 1 0 00-1.1-.88 1 1 0 00-.87 1.11 33.74 33.74 0 01-.08 8.4 8.6 8.6 0 00-9.11 6.26l-1 3.13a29.81 29.81 0 01-1.68 4.28 6.12 6.12 0 00-3.1-.15L51 32.81a6.86 6.86 0 00.27-6 6.78 6.78 0 00-2.65-3.09A10.36 10.36 0 0051 20.56c2-4.1.41-8.82.34-9a1 1 0 00-1.87-.06s-1.32 3.16-3.09 6.87l-.46 1c0-.35 0-.71.07-1.06.28-4.1.69-7.47.69-7.5A1 1 0 0045 9.88c-.16.14-3.83 3.48-4.14 8a10.49 10.49 0 00.56 4 6.76 6.76 0 00-3.54 1.38 7 7 0 00-2.82 5.45l-.14 7.36c-2.81-2.54-6.8-3.54-11.2-2.83a8.83 8.83 0 002-4.63c.3-3.85-2.78-7.12-2.91-7.26a1 1 0 00-1.33-.1 11.89 11.89 0 00-1.6 1.55A15.14 15.14 0 0015 19.4a1 1 0 00-1.26.44c-.11.2-2.72 5-1.17 9.47a11.85 11.85 0 005.25 5.86 15.33 15.33 0 00-6.12 5.33 11.43 11.43 0 00-1.23 9.5H10a1 1 0 00-1 1v39a1 1 0 001 1h80a1 1 0 001-1V51a1 1 0 00-.93-1l3.61-17.35a8.36 8.36 0 00-2.5-7.65zm-11.67 2.78a6.55 6.55 0 012.64-2.68 6.33 6.33 0 014.12-.47.94.94 0 00.17 0 1 1 0 00.2 0 1 1 0 00.18-.07.59.59 0 00.31-.2 1 1 0 00.13-.14 1 1 0 00.09-.19.94.94 0 00.07-.15l1.83-7.59a1 1 0 011.34-.65 1 1 0 01.53 1.1l-2 8.35a.91.91 0 000 .14 1 1 0 000 .22 1 1 0 00.05.18 1 1 0 00.07.18 1 1 0 00.13.17.93.93 0 00.09.11 6.45 6.45 0 012.29 6.18l-.6 2.87-.79-.94a5 5 0 00-4.08-1.77h-.18a2.93 2.93 0 01-2.5-1.14 5 5 0 00-4.6-1.86h-.2l-.28.1zm-3.4 6.07l.89-1.64 2.32-.81A3 3 0 0182 32.53a5 5 0 004.2 1.91h.19a3 3 0 012.44 1.06l1.74 2.08h.06L88 50h-7a1 1 0 00-1 1v11H58.27L62 55.07a4.84 4.84 0 002.8.9 4.84 4.84 0 002.11-.49 5 5 0 002.54-2.89 5 5 0 00-3-6.37c2.09-2.27 4.2-4.58 6.11-7a42.54 42.54 0 003.55-5.38zM11 52h7v10h-7zm9 5.28c2.31-5.91 8.59-9.88 15.65-9.88a18.53 18.53 0 014.71.61 6.36 6.36 0 004 4.57 6.1 6.1 0 003.95.06L47.85 56a6.06 6.06 0 00-7.59.19c-.15.13-.28.28-.42.42A5.82 5.82 0 0030.19 62H20zM89 64v7H11v-7zm-56.92-3.08a3.83 3.83 0 117.5 1.08h-7.32a3.81 3.81 0 01-.18-1.08zM41.65 62a5.86 5.86 0 00.1-1.08 5.79 5.79 0 00-.67-2.72 4 4 0 01.47-.47 4.05 4.05 0 015.71.47 1 1 0 00.23.18L47 61.86a1 1 0 000 .14zM11 73h78v7H11zm71-11V52h7v10zM69.09 16.67a8.49 8.49 0 015-2.1 8.45 8.45 0 01-2.06 5 8.5 8.5 0 01-5 2.1 8.49 8.49 0 012.06-5zM56.31 31.84l1-3.13a6.75 6.75 0 012.4-3.55 6.75 6.75 0 0110.82 5.65v3.23a31.8 31.8 0 00.23 4.23 74.666 74.666 0 01-4 4.62 6.4 6.4 0 00-4.2-5.63 6.18 6.18 0 00-6.18 1.23 6.35 6.35 0 00-1.83-2.05 31.83 31.83 0 001.76-4.6zm-4 5.66a4.36 4.36 0 012.74 3 1 1 0 00.47.61 1 1 0 001.38-.29 4.22 4.22 0 015-1.71 4.47 4.47 0 011.78 7.12 1 1 0 00-.09.16 1 1 0 00-.1.18 1 1 0 000 .18 1 1 0 000 .2 6.27 6.27 0 01.09.3 1 1 0 001 .58 2.82 2.82 0 011.23.15 3 3 0 011.81 3.84A3 3 0 0166 53.68a2.82 2.82 0 01-2.2.12 2.92 2.92 0 01-1.34-1 1 1 0 00-1.4-.19 1 1 0 00-.32.48L56 62h-2.66l2.43-7.17a1 1 0 00-1.89-.64l-2.57 7.57a1 1 0 000 .23H49l2-10.9a1.51 1.51 0 00-.36-.84 1.12 1.12 0 00-1.5-.19 4.29 4.29 0 01-4 .63 4.45 4.45 0 01-2.67-5.61 4.31 4.31 0 013.34-2.9h.1l.16-.06.18-.11.1-.1a1 1 0 00.14-.19v-.11a1 1 0 00.07-.25 4.56 4.56 0 01.23-1.08A4.33 4.33 0 0149 37.67a4.16 4.16 0 013.28-.18zM50 15.33a9.23 9.23 0 01-.78 4.37 8.91 8.91 0 01-2.62 3.11h-.15c.49-1 1.1-2.2 1.76-3.56s1.26-2.8 1.79-3.92zM42.86 18a9.23 9.23 0 011.47-4.18 152.808 152.808 0 00-.57 8.25h-.2a1 1 0 000-.21 8.81 8.81 0 01-.7-3.86zm-3.76 6.88a4.68 4.68 0 014-.86l3.19.78a4.71 4.71 0 013.13 2.74 4.86 4.86 0 01-.18 4.28l-.94 1.72-3.28-.86a1 1 0 00-.51 1.93l2.8.74-1 1.91a6.41 6.41 0 00-1.36 2.28 6.57 6.57 0 00-.22.83 6.33 6.33 0 00-4.18 4 6.47 6.47 0 00-.31 1.49 20.47 20.47 0 00-3.47-.48v-2.24l2.28.6a1 1 0 00.51-1.93l-2.75-.72.08-4.38 2.75.72a1 1 0 00.51-1.93l-2.9-.76a1 1 0 00-.32 0l.1-5.21 2.46.65a1 1 0 00.51-1.91l-2.75-.72a5.18 5.18 0 011.84-2.64zm-17.17-1.39a7.89 7.89 0 011.75 5 7.94 7.94 0 01-2.5 4.64 7.89 7.89 0 01-1.75-5 7.94 7.94 0 012.5-4.64zm-7.46 5.16c-.91-2.61 0-5.56.63-7a12.59 12.59 0 013.52 2.8A8.09 8.09 0 0017.44 28a9.34 9.34 0 001.66 5.62c-1.39-.82-3.75-2.48-4.62-4.97zm-1.06 12.92A14.43 14.43 0 0121 36c5.76-2 11.08-.88 13.88 2.95l-.12 6.47A19.06 19.06 0 0020 53.11V51a1 1 0 00-1-1h-6.45a9.59 9.59 0 01.86-8.43zM89 89H11v-7h78z"/>
  <path d="M72.92 44.83a1 1 0 001.41-.15c1.5-1.84 2.92-3.78 4.24-5.77a1 1 0 10-1.67-1.11 73.067 73.067 0 01-4.13 5.62 1 1 0 00.15 1.41z"/>
  <circle cx="13.58" cy="67.58" r="1.44"/>
  <circle cx="13.58" cy="76.5" r="1.44"/>
  <circle cx="13.58" cy="85.5" r="1.44"/>
  <circle cx="85.5" cy="67.58" r="1.44"/>
  <circle cx="85.5" cy="76.5" r="1.44"/>
  <circle cx="85.5" cy="85.5" r="1.44"/>
  <path d="M33.28 51.53a1 1 0 00.26 0 18.23 18.23 0 012.51-.5 1 1 0 00-.25-2 20.4 20.4 0 00-2.79.55 1 1 0 00.26 2zM31 51.27a1 1 0 00-1.33-.47 17.92 17.92 0 00-7.2 6.2 1 1 0 001.67 1.1 15.93 15.93 0 016.42-5.5 1 1 0 00.44-1.33zM23.73 38.84a1 1 0 00.29 0l.83-.22a1 1 0 10-.45-1.95q-.48.11-1 .25a1 1 0 00.29 2zM21.8 38.53a1 1 0 00-1.36-.39 12.23 12.23 0 00-6.21 8.14 1 1 0 00.77 1.19h.2a1 1 0 001-.81 10.24 10.24 0 015.23-6.79 1 1 0 00.37-1.34z"/>
</svg>